<?xml version="1.0" encoding="UTF-8"?>
<svg xmlns="http://www.w3.org/2000/svg" xmlns:xlink="http://www.w3.org/1999/xlink" viewBox="0 0 50 50" width="50px" height="50px">
<g id="surface1239578">
<path style=" stroke:none;fill-rule:nonzero;fill:rgb(250,250,250);fill-opacity:1;" d="M 0 25 C 0 11.191406 11.191406 0 25 0 C 38.808594 0 50 11.191406 50 25 C 50 38.808594 38.808594 50 25 50 C 11.191406 50 0 38.808594 0 25 Z M 25 49 C 38.253906 49 49 38.253906 49 25 C 49 11.746094 38.253906 1 25 1 C 11.746094 1 1 11.746094 1 25 C 1 38.253906 11.746094 49 25 49 Z M 25 49 "/>
<path style=" stroke:none;fill-rule:nonzero;fill:rgb(250,250,250);fill-opacity:1;" d="M 18.96875 10.261719 C 14.167969 10.261719 10.261719 14.167969 10.261719 18.96875 L 10.261719 31.03125 C 10.261719 35.832031 14.167969 39.738281 18.96875 39.738281 L 31.03125 39.738281 C 35.832031 39.738281 39.738281 35.832031 39.738281 31.03125 L 39.738281 18.96875 C 39.738281 14.167969 35.832031 10.261719 31.03125 10.261719 Z M 18.96875 11.601562 L 31.03125 11.601562 C 35.109375 11.601562 38.398438 14.890625 38.398438 18.96875 L 38.398438 31.03125 C 38.398438 35.109375 35.109375 38.398438 31.03125 38.398438 L 18.96875 38.398438 C 14.890625 38.398438 11.601562 35.109375 11.601562 31.03125 L 11.601562 18.96875 C 11.601562 14.890625 14.890625 11.601562 18.96875 11.601562 Z M 33.039062 15.621094 C 32.300781 15.621094 31.699219 16.21875 31.699219 16.960938 C 31.699219 17.699219 32.300781 18.300781 33.039062 18.300781 C 33.78125 18.300781 34.378906 17.699219 34.378906 16.960938 C 34.378906 16.21875 33.78125 15.621094 33.039062 15.621094 Z M 25 17.628906 C 20.9375 17.628906 17.628906 20.9375 17.628906 25 C 17.628906 29.0625 20.9375 32.371094 25 32.371094 C 29.0625 32.371094 32.371094 29.0625 32.371094 25 C 32.371094 20.9375 29.0625 17.628906 25 17.628906 Z M 25 18.96875 C 28.339844 18.96875 31.03125 21.660156 31.03125 25 C 31.03125 28.339844 28.339844 31.03125 25 31.03125 C 21.660156 31.03125 18.96875 28.339844 18.96875 25 C 18.96875 21.660156 21.660156 18.96875 25 18.96875 Z M 25 18.96875 "/>
</g>
</svg>
