<?xml version="1.0" encoding="UTF-8"?>
<svg xmlns="http://www.w3.org/2000/svg" xmlns:xlink="http://www.w3.org/1999/xlink" viewBox="0 0 60 60" width="60px" height="60px">
<g id="surface1044559">
<path style=" stroke:none;fill-rule:nonzero;fill:rgb(250,250,250);fill-opacity:1;" d="M 0 30 C 0 13.429688 13.429688 0 30 0 C 46.570312 0 60 13.429688 60 30 C 60 46.570312 46.570312 60 30 60 C 13.429688 60 0 46.570312 0 30 Z M 30 58.800781 C 45.90625 58.800781 58.800781 45.90625 58.800781 30 C 58.800781 14.09375 45.90625 1.199219 30 1.199219 C 14.09375 1.199219 1.199219 14.09375 1.199219 30 C 1.199219 45.90625 14.09375 58.800781 30 58.800781 Z M 30 58.800781 "/>
<path style=" stroke:none;fill-rule:nonzero;fill:rgb(250,250,250);fill-opacity:1;" d="M 47.863281 20.101562 C 46.546875 20.683594 45.132812 21.078125 43.652344 21.253906 C 45.164062 20.347656 46.328125 18.910156 46.875 17.203125 C 45.460938 18.039062 43.886719 18.648438 42.21875 18.976562 C 40.882812 17.550781 38.980469 16.664062 36.871094 16.664062 C 32.824219 16.664062 29.542969 19.945312 29.542969 23.992188 C 29.542969 24.566406 29.609375 25.125 29.734375 25.664062 C 23.640625 25.355469 18.246094 22.4375 14.628906 18.003906 C 13.996094 19.089844 13.636719 20.347656 13.636719 21.691406 C 13.636719 24.230469 14.929688 26.476562 16.898438 27.792969 C 15.695312 27.753906 14.5625 27.421875 13.574219 26.875 C 13.574219 26.902344 13.574219 26.933594 13.574219 26.964844 C 13.574219 30.519531 16.101562 33.476562 19.453125 34.152344 C 18.839844 34.320312 18.191406 34.410156 17.523438 34.410156 C 17.050781 34.410156 16.589844 34.363281 16.140625 34.277344 C 17.078125 37.183594 19.785156 39.308594 22.988281 39.367188 C 20.484375 41.332031 17.324219 42.503906 13.886719 42.503906 C 13.292969 42.503906 12.710938 42.46875 12.140625 42.398438 C 15.382812 44.480469 19.234375 45.691406 23.375 45.691406 C 36.855469 45.691406 44.226562 34.527344 44.226562 24.84375 C 44.226562 24.527344 44.21875 24.207031 44.207031 23.894531 C 45.636719 22.863281 46.878906 21.570312 47.863281 20.101562 Z M 47.863281 20.101562 "/>
</g>
</svg>
